HIERARCHY
ROOT Hips
{
  OFFSET 363.916 89.4436 202.859
  CHANNELS 6 Xposition Yposition Zposition Zrotation Xrotation Yrotation
  JOINT RightUpLeg
  {
    OFFSET -9.22681 -1.41939 0.059526
    CHANNELS 3 Zrotation Xrotation Yrotation
    JOINT RightLeg
    {
      OFFSET 0.076897 -41.8891 0.179098
      CHANNELS 3 Zrotation Xrotation Yrotation
      JOINT RightFoot
      {
        OFFSET -0.0130714 -43.0092 0.527065
        CHANNELS 3 Zrotation Xrotation Yrotation
        End Site
        {
          OFFSET 0 -7.69 17.5
        }
      }
    }
  }
  JOINT LeftUpLeg
  {
    OFFSET 9.19333 -1.7604 -0.077889
    CHANNELS 3 Zrotation Xrotation Yrotation
    JOINT LeftLeg
    {
      OFFSET -0.0291634 -41.859 -0.15197
      CHANNELS 3 Zrotation Xrotation Yrotation
      JOINT LeftFoot
      {
        OFFSET 0.141288 -40.5593 0.458407
        CHANNELS 3 Zrotation Xrotation Yrotation
        End Site
        {
          OFFSET 0 -7.69 17.5
        }
      }
    }
  }
  JOINT Spine
  {
    OFFSET 0.215607 14.2961 0.04713
    CHANNELS 3 Zrotation Xrotation Yrotation
    JOINT Spine1
    {
      OFFSET 0.127345 9.70675 0.00151561
      CHANNELS 3 Zrotation Xrotation Yrotation
      JOINT Spine2
      {
        OFFSET 0.0493166 10.1169 -0.00299987
        CHANNELS 3 Zrotation Xrotation Yrotation
        JOINT Spine3
        {
          OFFSET 0.0599611 9.70888 0.0197622
          CHANNELS 3 Zrotation Xrotation Yrotation
          JOINT Neck
          {
            OFFSET 0.305156 10.372 0.0704915
            CHANNELS 3 Zrotation Xrotation Yrotation
            JOINT Head
            {
              OFFSET 0.288394 9.47974 0.0406202
              CHANNELS 3 Zrotation Xrotation Yrotation
              End Site
              {
                OFFSET 0 15.95 0
              }
            }
          }
          JOINT RightShoulder
          {
            OFFSET -3.14873 6.92098 0.0285763
            CHANNELS 3 Zrotation Xrotation Yrotation
            JOINT RightArm
            {
              OFFSET -12.7049 -0.00288304 0.0369593
              CHANNELS 3 Zrotation Xrotation Yrotation
              JOINT RightForeArm
              {
                OFFSET -26.4954 -0.160471 0.0134548
                CHANNELS 3 Zrotation Xrotation Yrotation
                JOINT RightHand
                {
                  OFFSET -26.0026 -0.0211725 -0.0218708
                  CHANNELS 3 Zrotation Xrotation Yrotation
                  JOINT RightHandThumb1
                  {
                    OFFSET -2.48905 0.190105 3.12053
                    CHANNELS 3 Zrotation Xrotation Yrotation
                    JOINT RightHandThumb2
                    {
                      OFFSET -3.68274 0 0
                      CHANNELS 3 Zrotation Xrotation Yrotation
                      JOINT RightHandThumb3
                      {
                        OFFSET -2.55832 0 0
                        CHANNELS 3 Zrotation Xrotation Yrotation
                        End Site
                        {
                          OFFSET -2.194 0 0
                        }
                      }
                    }
                  }
                  JOINT RightInHandIndex
                  {
                    OFFSET -3.22368 0.508421 1.97842
                    CHANNELS 3 Zrotation Xrotation Yrotation
                    JOINT RightHandIndex1
                    {
                      OFFSET -5.21684 -0.091368 0.999158
                      CHANNELS 3 Zrotation Xrotation Yrotation
                      JOINT RightHandIndex2
                      {
                        OFFSET -3.61937 0 0
                        CHANNELS 3 Zrotation Xrotation Yrotation
                        JOINT RightHandIndex3
                        {
                          OFFSET -2.0521 0 0
                          CHANNELS 3 Zrotation Xrotation Yrotation
                          End Site
                          {
                            OFFSET -1.805 0 0
                          }
                        }
                      }
                    }
                  }
                  JOINT RightInHandMiddle
                  {
                    OFFSET -3.38211 0.517263 0.756737
                    CHANNELS 3 Zrotation Xrotation Yrotation
                    JOINT RightHandMiddle1
                    {
                      OFFSET -5.17411 -0.084 0.313895
                      CHANNELS 3 Zrotation Xrotation Yrotation
                      JOINT RightHandMiddle2
                      {
                        OFFSET -3.94947 0 0
                        CHANNELS 3 Zrotation Xrotation Yrotation
                        JOINT RightHandMiddle3
                        {
                          OFFSET -2.47579 0 0
                          CHANNELS 3 Zrotation Xrotation Yrotation
                          End Site
                          {
                            OFFSET -1.975 0 0
                          }
                        }
                      }
                    }
                  }
                  JOINT RightInHandRing
                  {
                    OFFSET -3.36516 0.537895 -0.128947
                    CHANNELS 3 Zrotation Xrotation Yrotation
                    JOINT RightHandRing1
                    {
                      OFFSET -4.63474 -0.022105 -0.478947
                      CHANNELS 3 Zrotation Xrotation Yrotation
                      JOINT RightHandRing2
                      {
                        OFFSET -3.44238 0 0
                        CHANNELS 3 Zrotation Xrotation Yrotation
                        JOINT RightHandRing3
                        {
                          OFFSET -2.3881 0 0
                          CHANNELS 3 Zrotation Xrotation Yrotation
                          End Site
                          {
                            OFFSET -1.857 0 0
                          }
                        }
                      }
                    }
                  }
                  JOINT RightInHandPinky
                  {
                    OFFSET -3.16105 0.469368 -1.20179
                    CHANNELS 3 Zrotation Xrotation Yrotation
                    JOINT RightHandPinky1
                    {
                      OFFSET -4.14105 -0.022105 -1.09053
                      CHANNELS 3 Zrotation Xrotation Yrotation
                      JOINT RightHandPinky2
                      {
                        OFFSET -2.75653 0 0
                        CHANNELS 3 Zrotation Xrotation Yrotation
                        JOINT RightHandPinky3
                        {
                          OFFSET -1.74189 0 0
                          CHANNELS 3 Zrotation Xrotation Yrotation
                          End Site
                          {
                            OFFSET -1.645 0 0
                          }
                        }
                      }
                    }
                  }
                }
              }
            }
          }
          JOINT LeftShoulder
          {
            OFFSET 3.26342 6.92519 -0.0174379
            CHANNELS 3 Zrotation Xrotation Yrotation
            JOINT LeftArm
            {
              OFFSET 12.8742 -0.0269705 -0.0666419
              CHANNELS 3 Zrotation Xrotation Yrotation
              JOINT LeftForeArm
              {
                OFFSET 26.5114 0.000826062 -0.052783
                CHANNELS 3 Zrotation Xrotation Yrotation
                JOINT LeftHand
                {
                  OFFSET 25.9941 -0.0689373 0.00603348
                  CHANNELS 3 Zrotation Xrotation Yrotation
                  JOINT LeftHandThumb1
                  {
                    OFFSET 2.48905 0.190105 3.12053
                    CHANNELS 3 Zrotation Xrotation Yrotation
                    JOINT LeftHandThumb2
                    {
                      OFFSET 3.68274 0 0
                      CHANNELS 3 Zrotation Xrotation Yrotation
                      JOINT LeftHandThumb3
                      {
                        OFFSET 2.55832 0 0
                        CHANNELS 3 Zrotation Xrotation Yrotation
                        End Site
                        {
                          OFFSET 2.194 0 0
                        }
                      }
                    }
                  }
                  JOINT LeftInHandIndex
                  {
                    OFFSET 3.22368 0.508421 1.97842
                    CHANNELS 3 Zrotation Xrotation Yrotation
                    JOINT LeftHandIndex1
                    {
                      OFFSET 5.21684 -0.091368 0.999158
                      CHANNELS 3 Zrotation Xrotation Yrotation
                      JOINT LeftHandIndex2
                      {
                        OFFSET 3.61937 0 0
                        CHANNELS 3 Zrotation Xrotation Yrotation
                        JOINT LeftHandIndex3
                        {
                          OFFSET 2.0521 0 0
                          CHANNELS 3 Zrotation Xrotation Yrotation
                          End Site
                          {
                            OFFSET 1.805 0 0
                          }
                        }
                      }
                    }
                  }
                  JOINT LeftInHandMiddle
                  {
                    OFFSET 3.38211 0.517263 0.756737
                    CHANNELS 3 Zrotation Xrotation Yrotation
                    JOINT LeftHandMiddle1
                    {
                      OFFSET 5.17411 -0.084 0.313895
                      CHANNELS 3 Zrotation Xrotation Yrotation
                      JOINT LeftHandMiddle2
                      {
                        OFFSET 3.94947 0 0
                        CHANNELS 3 Zrotation Xrotation Yrotation
                        JOINT LeftHandMiddle3
                        {
                          OFFSET 2.47579 0 0
                          CHANNELS 3 Zrotation Xrotation Yrotation
                          End Site
                          {
                            OFFSET 1.975 0 0
                          }
                        }
                      }
                    }
                  }
                  JOINT LeftInHandRing
                  {
                    OFFSET 3.36516 0.537895 -0.128947
                    CHANNELS 3 Zrotation Xrotation Yrotation
                    JOINT LeftHandRing1
                    {
                      OFFSET 4.63474 -0.022105 -0.478947
                      CHANNELS 3 Zrotation Xrotation Yrotation
                      JOINT LeftHandRing2
                      {
                        OFFSET 3.44238 0 0
                        CHANNELS 3 Zrotation Xrotation Yrotation
                        JOINT LeftHandRing3
                        {
                          OFFSET 2.3881 0 0
                          CHANNELS 3 Zrotation Xrotation Yrotation
                          End Site
                          {
                            OFFSET 1.857 0 0
                          }
                        }
                      }
                    }
                  }
                  JOINT LeftInHandPinky
                  {
                    OFFSET 3.16105 0.469368 -1.20179
                    CHANNELS 3 Zrotation Xrotation Yrotation
                    JOINT LeftHandPinky1
                    {
                      OFFSET 4.14105 -0.022105 -1.09053
                      CHANNELS 3 Zrotation Xrotation Yrotation
                      JOINT LeftHandPinky2
                      {
                        OFFSET 2.75653 0 0
                        CHANNELS 3 Zrotation Xrotation Yrotation
                        JOINT LeftHandPinky3
                        {
                          OFFSET 1.74189 0 0
                          CHANNELS 3 Zrotation Xrotation Yrotation
                          End Site
                          {
                            OFFSET 1.645 0 0
                          }
                        }
                      }
                    }
                  }
                }
              }
            }
          }
        }
      }
    }
  }
}
MOTION
Frames: 2
Frame Time: 0.00833333
3.506643000000000029e+03 8.747429999999998529e+01 2.038079999999999643e+02 2.219610000000000838e+01 2.224330000000001029e+00 -1.423009999999999877e+02 3.550239999999999441e+01 -3.226709999999999923e+01 3.582999999999999829e+01 -6.579679999999999751e+00 8.555350000000000676e+00 -1.777539999999999676e+00 9.482990000000000919e+00 1.742559999999999576e+01 5.522610000000000241e+01 3.064139999999999731e+01 -1.208549999999999791e+01 1.973969999999999914e+01 -2.792800000000000438e+01 4.010650000000000404e+01 3.221430000000000149e+01 8.090669999999999362e+00 -2.692919999999999803e+01 1.693840000000000146e+01 -2.486180000000000057e+00 -2.573620000000000463e+00 -8.746039999999998926e+00 -5.852660000000000640e-01 -7.144160000000000510e-01 -2.166990000000000194e+00 -9.855290000000000994e-01 -1.205699999999999994e+00 -3.573260000000000325e+00 -6.172790000000000221e-01 -3.526130000000000653e-01 2.759360000000000479e+00 -1.376849999999996133e-02 -6.054940000000000211e+00 4.281629999999999114e+01 -9.942209999999999326e+00 9.208370000000002165e+00 2.664190000000000325e+01 4.311099999999999710e+00 4.903529999999999944e+00 -2.292019999999999502e+00 4.677960000000000207e+01 -6.683319999999999084e+01 1.998140000000000427e+01 4.287889999999999446e+01 1.401500000000000057e+01 1.148750000000000000e+02 1.717739999999999512e+01 -1.140739999999999910e+01 1.062229999999999563e+01 2.818400000000000105e+01 1.072940000000000005e+01 1.915919999999999845e+01 -5.545450000000000209e-15 -3.975689999999999725e-15 -1.000000000000000000e+01 -1.746010000000000302e-14 0.000000000000000000e+00 -1.000000000000000000e+01 -9.939229999999980662e-17 1.590280000000000668e-15 -5.565969999999999999e-15 1.998179999999999978e+01 8.718970000000000331e-01 2.396399999999999864e+00 2.400000000000000000e+01 -1.093320000000000024e-14 -3.180550000000000771e-14 2.000000000000000000e+01 -1.518709999999999847e-13 -8.841940000000000793e-13 -9.939229999999980662e-17 1.590280000000000668e-15 -5.565969999999999999e-15 2.000000000000000000e+01 -1.590280000000000077e-15 -9.541660000000000512e-15 2.400000000000000000e+01 -7.951389999999999226e-15 -3.021529999999999697e-14 2.000000000000000000e+01 -3.762000000000000151e-14 -2.274100000000000377e-13 -9.939229999999980662e-17 1.590280000000000668e-15 -5.565969999999999999e-15 1.997479999999999833e+01 -1.025649999999999951e+00 -2.819380000000000219e+00 2.400000000000000000e+01 3.180549999999999982e-15 -1.749310000000000020e-14 2.000000000000000000e+01 -3.299830000000000137e-14 -1.510760000000000118e-13 -9.939229999999980662e-17 1.590280000000000668e-15 -5.565969999999999999e-15 1.978150000000000119e+01 -3.009479999999999933e+00 -8.305149999999999366e+00 2.400000000000000000e+01 4.770829999999999467e-15 -3.697390000000000389e-14 2.000000000000000000e+01 -4.770830000000001045e-15 -4.293750000000000006e-14 2.695699999999999541e+00 -1.727039999999999509e+01 -5.275659999999999883e+01 -1.270299999999999940e+01 2.868229999999999791e+01 -1.061730000000000160e+02 4.694150000000000489e+01 -9.257389999999999119e+00 -3.406609999999999872e+01 -1.237139999999999773e+01 -1.101050000000000040e+01 -1.699589999999999890e+01 -2.818400000000000105e+01 1.072940000000000005e+01 -1.915919999999999845e+01 3.790439999999999327e-15 -3.180550000000000771e-15 1.000000000000000000e+01 -5.741310000000001779e-15 -6.361109999999999741e-15 1.000000000000000000e+01 6.559890000000000183e-15 0.000000000000000000e+00 -1.590280000000000274e-15 -1.998179999999999978e+01 8.718970000000000331e-01 -2.396399999999999864e+00 -2.400000000000000000e+01 1.590280000000000077e-15 4.770829999999999467e-15 -2.000000000000000000e+01 3.180550000000000376e-15 2.733289999999999889e-15 6.559890000000000183e-15 0.000000000000000000e+00 -1.590280000000000274e-15 -2.000000000000000000e+01 0.000000000000000000e+00 4.770830000000000256e-15 -2.400000000000000000e+01 -1.590279999999999485e-15 1.590279999999999485e-15 -2.000000000000000000e+01 -6.361109999999999741e-15 -4.770830000000000256e-15 6.559890000000000183e-15 0.000000000000000000e+00 -1.590280000000000274e-15 -1.997479999999999833e+01 -1.025649999999999951e+00 2.819380000000000219e+00 -2.400000000000000000e+01 1.590280000000000274e-15 1.118160000000000010e-15 -2.000000000000000000e+01 -1.590280000000000274e-15 -3.975690000000008402e-16 6.559890000000000183e-15 0.000000000000000000e+00 -1.590280000000000274e-15 -1.978150000000000119e+01 -3.009479999999999933e+00 8.305149999999999366e+00 -2.400000000000000000e+01 5.565969999999999999e-15 -7.951389999999999226e-16 -2.000000000000000000e+01 -3.975690000000000513e-16 -7.951389999999996071e-15
3.506679000000000087e+03 8.748529999999999518e+01 2.037630000000000337e+02 2.227299999999999969e+01 2.300129999999999342e+00 -1.422849999999999966e+02 3.557589999999999719e+01 -3.226590000000000913e+01 3.584400000000000830e+01 -6.551999999999999602e+00 8.578140000000001208e+00 -1.840630000000000210e+00 9.456149999999999167e+00 1.739190000000000325e+01 5.521170000000000044e+01 3.092620000000000502e+01 -1.200780000000000314e+01 1.937380000000000280e+01 -2.831810000000000116e+01 3.992289999999999850e+01 3.248319999999999652e+01 8.136889999999997514e+00 -2.683000000000000185e+01 1.698349999999999937e+01 -2.524619999999999642e+00 -2.648849999999999927e+00 -8.777229999999999421e+00 -5.935720000000000995e-01 -7.342560000000000198e-01 -2.166459999999999830e+00 -9.995690000000000408e-01 -1.238629999999999898e+00 -3.571979999999999933e+00 -6.155960000000000321e-01 -3.482340000000000435e-01 2.759610000000000340e+00 -2.434029999999998140e-02 -5.998780000000000001e+00 4.278640000000000043e+01 -9.908799999999999386e+00 9.219590000000000174e+00 2.663500000000000156e+01 4.174579999999998847e+00 4.899439999999999351e+00 -2.276889999999999858e+00 4.667900000000000205e+01 -6.680249999999998067e+01 1.992650000000000432e+01 4.197070000000000789e+01 1.373990000000000045e+01 1.150530000000000257e+02 1.712030000000000030e+01 -1.158450000000000202e+01 1.051900000000000013e+01 2.818400000000000105e+01 1.072940000000000005e+01 1.915919999999999845e+01 -9.306989999999993092e-16 1.590279999999999880e-15 -1.000000000000000000e+01 -1.474060000000000133e-14 3.975690000000000513e-15 -1.000000000000000000e+01 -4.671439999999999246e-15 3.180549999999999982e-15 -3.975689999999998936e-15 1.998179999999999978e+01 8.718970000000000331e-01 2.396399999999999864e+00 2.400000000000000000e+01 -9.243489999999999850e-15 -3.021530000000000329e-14 2.000000000000000000e+01 -1.518710000000000099e-13 -8.810139999999999859e-13 -4.671439999999999246e-15 3.180549999999999982e-15 -3.975689999999998936e-15 2.000000000000000000e+01 0.000000000000000000e+00 -9.541660000000000512e-15 2.400000000000000000e+01 -7.951389999999999226e-15 -3.021529999999999697e-14 2.000000000000000000e+01 -3.826599999999999820e-14 -2.242290000000000233e-13 -4.671439999999999246e-15 3.180549999999999982e-15 -3.975689999999998936e-15 1.997479999999999833e+01 -1.025649999999999951e+00 -2.819380000000000219e+00 2.400000000000000000e+01 2.385420000000000017e-15 -1.669790000000000022e-14 2.000000000000000000e+01 -3.220309999999999508e-14 -1.526670000000000299e-13 -4.671439999999999246e-15 3.180549999999999982e-15 -3.975689999999998936e-15 1.978150000000000119e+01 -3.009479999999999933e+00 -8.305149999999999366e+00 2.400000000000000000e+01 4.770830000000001045e-15 -3.617880000000000484e-14 2.000000000000000000e+01 -4.770830000000000256e-15 -3.975689999999999567e-14 2.705789999999999473e+00 -1.726780000000000115e+01 -5.278020000000000067e+01 -1.267820000000000036e+01 2.845929999999999538e+01 -1.062509999999999906e+02 4.678800000000000381e+01 -9.356310000000000571e+00 -3.390840000000000032e+01 -1.245410000000000039e+01 -1.113250000000000028e+01 -1.733109999999999928e+01 -2.818400000000000105e+01 1.072940000000000005e+01 -1.915919999999999845e+01 8.634870000000000622e-15 -3.180549999999999982e-15 1.000000000000000000e+01 -4.081760000000000283e-15 -3.180549999999999982e-15 1.000000000000000000e+01 5.764760000000000217e-15 1.590279999999999682e-15 -4.770830000000000256e-15 -1.998179999999999978e+01 8.718970000000000331e-01 -2.396399999999999864e+00 -2.400000000000000000e+01 0.000000000000000000e+00 5.565969999999999999e-15 -2.000000000000000000e+01 -3.180550000000000771e-15 9.939230000000002355e-16 5.764760000000000217e-15 1.590279999999999682e-15 -4.770830000000000256e-15 -2.000000000000000000e+01 -3.180549999999999982e-15 5.565969999999999999e-15 -2.400000000000000000e+01 3.180549999999999982e-15 1.987850000000000145e-15 -2.000000000000000000e+01 -1.590280000000000274e-15 -7.156249999999999484e-15 5.764760000000000217e-15 1.590279999999999682e-15 -4.770830000000000256e-15 -1.997479999999999833e+01 -1.025649999999999951e+00 2.819380000000000219e+00 -2.400000000000000000e+01 1.590280000000000077e-15 2.484810000000000237e-15 -2.000000000000000000e+01 -3.180549999999999587e-15 -1.192709999999999614e-15 5.764760000000000217e-15 1.590279999999999682e-15 -4.770830000000000256e-15 -1.978150000000000119e+01 -3.009479999999999933e+00 8.305149999999999366e+00 -2.400000000000000000e+01 7.156249999999997906e-15 -7.951389999999995282e-16 -2.000000000000000000e+01 7.951390000000001198e-16 -7.951390000000000804e-15
